<svg width="24" height="24" viewBox="0 0 24 24" fill="none" xmlns="http://www.w3.org/2000/svg">
<path d="M12.0004 22.0839H12.0006C14.6741 22.081 17.2372 21.0176 19.1277 19.1272C21.0181 17.2367 22.0815 14.6736 22.0844 12.0001V11.9999C22.0844 10.0055 21.493 8.05586 20.3849 6.39755C19.2769 4.73925 17.702 3.44676 15.8594 2.68352C14.0168 1.92029 11.9892 1.72059 10.0331 2.10968C8.07702 2.49878 6.28022 3.45918 4.86995 4.86946C3.45967 6.27973 2.49927 8.07653 2.11017 10.0326C1.72108 11.9887 1.92078 14.0163 2.68401 15.8589C3.44724 17.7015 4.73973 19.2764 6.39804 20.3845C8.05635 21.4925 10.006 22.0839 12.0004 22.0839ZM7.12028 4.69629C8.56479 3.73111 10.2631 3.21593 12.0003 3.21592C14.3292 3.21855 16.562 4.14486 18.2087 5.79162C19.8555 7.43841 20.7818 9.67118 20.7844 12.0001C20.7844 13.7373 20.2692 15.4356 19.304 16.8801C18.3388 18.3246 16.967 19.4504 15.3619 20.1153C13.7568 20.7801 11.9907 20.9541 10.2867 20.6151C8.58281 20.2762 7.01765 19.4396 5.78918 18.2111C4.56072 16.9827 3.72413 15.4175 3.38519 13.7136C3.04626 12.0097 3.22021 10.2435 3.88505 8.63843C4.54989 7.03336 5.67576 5.66149 7.12028 4.69629Z" fill="#6B7280" stroke="#6B7280" stroke-width="0.3"/>
<path d="M11.4 8.40006H10.25C9.95826 8.40006 9.67847 8.51595 9.47218 8.72224C9.26589 8.92853 9.15 9.20832 9.15 9.50006V14.5001C9.15 14.7918 9.26589 15.0716 9.47218 15.2779C9.67847 15.4842 9.95826 15.6001 10.25 15.6001H11.4V8.40006ZM11.4 8.40006V7.47006V7.46743L11.4 7.46743C11.4021 7.39044 11.4193 7.31462 11.4508 7.24434C11.4823 7.17406 11.5274 7.11071 11.5835 7.05797C11.6396 7.00522 11.7057 6.96411 11.7777 6.93702C11.849 6.91026 11.9247 6.8977 12.0007 6.90003C12.0017 6.90006 12.0026 6.90009 12.0036 6.90012L12 7.00006L11.4 8.40006ZM12.7499 8.40006H12.6L14.343 11.7014C14.5524 11.4263 14.687 11.1009 14.7327 10.757C14.7829 10.3797 14.7241 9.99601 14.5632 9.65112C14.4023 9.30623 14.1461 9.01458 13.8248 8.81062C13.5035 8.60666 13.1306 8.49889 12.75 8.50006V8.40006H12.7499ZM15.0753 12.465C14.9157 12.1821 14.6938 11.9398 14.4269 11.7563L11.5 16.5301C11.5017 16.5938 11.516 16.6567 11.5421 16.7149C11.5682 16.7731 11.6055 16.8256 11.652 16.8693C11.6985 16.913 11.7532 16.9471 11.8129 16.9695C11.8727 16.9919 11.9362 17.0023 12 17.0001L11.9979 17.1C11.9988 17.1001 11.9998 17.1001 12.0007 17.1001C12.1542 17.1026 12.3026 17.0452 12.4145 16.9401C12.5271 16.8342 12.5936 16.6885 12.5999 16.5341L12.6 16.5341V16.5301V15.6001H13.25L13.2503 15.6001C13.8067 15.5984 14.3398 15.3766 14.7332 14.9832C15.1266 14.5898 15.3483 14.0567 15.35 13.5004L15.35 13.4995C15.348 13.1369 15.2534 12.7809 15.0753 12.465ZM10.35 9.60006H12.75C12.9887 9.60006 13.2176 9.69488 13.3864 9.86367C13.5552 10.0324 13.65 10.2614 13.65 10.5001C13.65 10.7388 13.5552 10.9677 13.3864 11.1365C13.2176 11.3052 12.9887 11.4001 12.75 11.4001H10.35V9.60006ZM13.25 14.4001H10.35V12.6001H13.25C13.4887 12.6001 13.7176 12.6949 13.8864 12.8637C14.0552 13.0324 14.15 13.2614 14.15 13.5001C14.15 13.7388 14.0552 13.9677 13.8864 14.1365C13.7176 14.3052 13.4887 14.4001 13.25 14.4001Z" fill="#6B7280" stroke="#6B7280" stroke-width="0.2"/>
</svg>
