<svg width="214" height="214" viewBox="0 0 214 214" fill="none" xmlns="http://www.w3.org/2000/svg">
<path d="M214 107C214 166.094 166.094 214 107 214C47.9055 214 0 166.094 0 107C0 47.9055 47.9055 0 107 0C166.094 0 214 47.9055 214 107ZM44.9275 107C44.9275 141.282 72.7183 169.073 107 169.073C141.282 169.073 169.073 141.282 169.073 107C169.073 72.7183 141.282 44.9275 107 44.9275C72.7183 44.9275 44.9275 72.7183 44.9275 107Z" fill="#E4F1FF"/>
<path d="M185.05 74.4885C196.495 69.7211 209.898 75.1438 212.177 87.331C215.948 107.496 213.869 128.49 205.936 147.75C195.129 173.99 174.34 194.861 148.144 205.773C121.947 216.685 92.4892 216.744 66.2496 205.936C46.9897 198.003 30.6218 184.693 18.9618 167.814C11.9149 157.613 17.5047 144.279 28.9499 139.511C40.3951 134.744 53.3168 140.592 61.8242 149.611C67.8111 155.958 75.1259 161.034 83.3491 164.421C98.5781 170.694 115.675 170.66 130.879 164.327C146.083 157.994 158.149 145.88 164.421 130.651C167.808 122.428 169.356 113.66 169.067 104.94C168.656 92.548 173.605 79.256 185.05 74.4885Z" fill="#FF9F29"/>
<path d="M117.008 22.9444C118.467 10.687 129.72 1.71378 141.409 5.68338C154.223 10.0353 166.16 16.801 176.547 25.6848C192.63 39.44 204.273 57.6553 210.003 78.0274C215.733 98.3994 215.294 120.013 208.74 140.135C204.507 153.132 197.847 165.128 189.181 175.522C181.276 185.003 166.995 183.212 159.36 173.513C151.724 163.814 153.868 149.858 160.269 139.304C162.739 135.231 164.746 130.868 166.236 126.292C170.052 114.577 170.308 101.992 166.971 90.1313C163.635 78.2701 156.856 67.6646 147.493 59.6559C143.835 56.528 139.848 53.8511 135.618 51.6633C124.653 45.993 115.548 35.2018 117.008 22.9444Z" fill="#487FFF"/>
</svg>
