<svg width="24" height="24" viewBox="0 0 24 24" fill="none" xmlns="http://www.w3.org/2000/svg">
<path d="M21.7334 9.76887C21.1914 5.89387 18.1064 2.80878 14.2314 2.26778C13.7374 2.19778 13.2344 2.34879 12.8534 2.67879C12.4694 3.01279 12.2494 3.49381 12.2494 4.00081V10.0089C12.2494 10.9689 13.0304 11.7508 13.9914 11.7508H20.0004C20.5064 11.7508 20.9884 11.5308 21.3214 11.1478C21.6524 10.7668 21.8024 10.2649 21.7334 9.76887ZM20.1894 10.1618C20.1614 10.1948 20.0984 10.2498 20.0004 10.2498H13.9924C13.8584 10.2498 13.7504 10.1419 13.7504 10.0079V3.99983C13.7504 3.90083 13.8054 3.83789 13.8384 3.80989C13.8654 3.78589 13.9184 3.74983 13.9924 3.74983C14.0024 3.74983 14.0134 3.75078 14.0234 3.75178C14.0244 3.75178 14.0244 3.75178 14.0244 3.75178C17.2384 4.20078 19.7974 6.76078 20.2474 9.97578C20.2604 10.0658 20.2174 10.1308 20.1894 10.1618ZM18.0444 12.6568H12.0934C11.6804 12.6568 11.3434 12.3208 11.3434 11.9068V5.95589C11.3434 5.44089 11.1144 4.95781 10.7154 4.63081C10.3244 4.31181 9.81944 4.18281 9.32744 4.28181C7.04544 4.73981 4.99643 6.12479 3.70543 8.07979C2.40043 10.0568 1.9534 12.4488 2.4464 14.8138C3.1414 18.1488 5.84941 20.8568 9.18541 21.5528C9.81341 21.6838 10.4434 21.7489 11.0664 21.7489C12.7914 21.7489 14.4664 21.2528 15.9194 20.2938C17.8744 19.0028 19.2594 16.9548 19.7174 14.6728C19.8164 14.1828 19.6904 13.6759 19.3694 13.2849C19.0424 12.8859 18.5594 12.6568 18.0444 12.6568ZM15.0934 19.0428C13.4524 20.1268 11.4614 20.4978 9.49242 20.0848C6.73142 19.5088 4.49039 17.2679 3.91539 14.5079C3.50439 12.5369 3.87438 10.5478 4.95738 8.90584C6.02938 7.28184 7.72942 6.13288 9.62242 5.75288C9.63442 5.75088 9.6444 5.74983 9.65441 5.74983C9.7024 5.74983 9.73941 5.77082 9.76341 5.79182C9.78741 5.81082 9.84239 5.86589 9.84239 5.95589V11.9068C9.84239 13.1478 10.8524 14.1568 12.0924 14.1568H18.0434C18.1334 14.1568 18.1884 14.2118 18.2074 14.2358C18.2314 14.2658 18.2584 14.3149 18.2454 14.3789C17.8664 16.2709 16.7174 17.9708 15.0934 19.0428Z" fill="#4B5563"/>
</svg>
