<svg width="16" height="16" viewBox="0 0 16 16" fill="none" xmlns="http://www.w3.org/2000/svg">
<path d="M4.27325 5.33344H11.7266C11.8584 5.33399 11.9872 5.37362 12.0965 5.44733C12.2058 5.52104 12.2908 5.62551 12.3408 5.74753C12.3907 5.86955 12.4034 6.00365 12.3771 6.13286C12.3508 6.26206 12.2869 6.38059 12.1932 6.47343L8.47325 10.1934C8.41127 10.2559 8.33754 10.3055 8.2563 10.3394C8.17506 10.3732 8.08792 10.3906 7.99991 10.3906C7.91191 10.3906 7.82477 10.3732 7.74353 10.3394C7.66229 10.3055 7.58856 10.2559 7.52658 10.1934L3.80658 6.47343C3.71297 6.38059 3.64898 6.26206 3.62273 6.13286C3.59647 6.00365 3.60912 5.86955 3.65907 5.74753C3.70902 5.62551 3.79403 5.52104 3.90335 5.44733C4.01267 5.37362 4.1414 5.33399 4.27325 5.33344Z" fill="#EF4A00"/>
</svg>
