<svg width="16" height="16" viewBox="0 0 16 16" fill="none" xmlns="http://www.w3.org/2000/svg">
<g clip-path="url(#clip0_3370_5752)">
<path d="M15.8058 14.8619L11.8284 10.8853C12.9108 9.56102 13.4429 7.87141 13.3145 6.16589C13.1862 4.46037 12.4073 2.86942 11.1388 1.72208C9.87043 0.574742 8.20957 -0.0412156 6.49977 0.00160348C4.78996 0.0444226 3.16202 0.742743 1.95262 1.95214C0.743231 3.16153 0.0449109 4.78947 0.00209176 6.49928C-0.0407274 8.20908 0.57523 9.86994 1.72257 11.1384C2.86991 12.4068 4.46086 13.1857 6.16638 13.314C7.87189 13.4424 9.56151 12.9103 10.8858 11.8279L14.8631 15.8046C14.9888 15.926 15.1572 15.9932 15.332 15.9917C15.5068 15.9902 15.674 15.9201 15.7976 15.7965C15.9212 15.6729 15.9914 15.5057 15.9929 15.3309C15.9944 15.1561 15.9272 14.9877 15.8058 14.8619ZM8.66776 7.33327H4.66776C4.49095 7.33327 4.32138 7.26303 4.19635 7.13801C4.07133 7.01298 4.00109 6.84341 4.00109 6.6666C4.00109 6.48979 4.07133 6.32022 4.19635 6.1952C4.32138 6.07018 4.49095 5.99994 4.66776 5.99994H8.66776C8.84457 5.99994 9.01414 6.07018 9.13916 6.1952C9.26419 6.32022 9.33442 6.48979 9.33442 6.6666C9.33442 6.84341 9.26419 7.01298 9.13916 7.13801C9.01414 7.26303 8.84457 7.33327 8.66776 7.33327Z" fill="#858D9D"/>
</g>
<defs>
<clipPath id="clip0_3370_5752">
<rect width="16" height="16" fill="white"/>
</clipPath>
</defs>
</svg>
