<svg width="16" height="16" viewBox="0 0 16 16" fill="none" xmlns="http://www.w3.org/2000/svg">
<g clip-path="url(#clip0_3370_5749)">
<path d="M6.66616 13.3331C8.20407 13.335 9.69493 12.8029 10.8842 11.8278L14.8615 15.8044C14.9872 15.9259 15.1556 15.9931 15.3304 15.9915C15.5052 15.99 15.6724 15.9199 15.796 15.7963C15.9196 15.6727 15.9898 15.5055 15.9913 15.3307C15.9928 15.1559 15.9256 14.9875 15.8042 14.8618L11.8268 10.8851C12.7847 9.71297 13.3152 8.24973 13.331 6.73605C13.3468 5.22237 12.847 3.74837 11.9138 2.55649C10.9806 1.36461 9.66951 0.525814 8.19623 0.178061C6.72296 -0.169691 5.17519 -0.00569447 3.8075 0.643079C2.43981 1.29185 1.33364 2.38677 0.670908 3.74776C0.0081805 5.10874 -0.171637 6.65474 0.161029 8.1315C0.493696 9.60826 1.31904 10.9278 2.50131 11.8732C3.68359 12.8186 5.15239 13.3334 6.66616 13.3331ZM4.66616 5.99976H5.99949V4.66643C5.99949 4.48962 6.06973 4.32005 6.19475 4.19502C6.31978 4.07 6.48935 3.99976 6.66616 3.99976C6.84297 3.99976 7.01254 4.07 7.13756 4.19502C7.26259 4.32005 7.33282 4.48962 7.33282 4.66643V5.99976H8.66616C8.84297 5.99976 9.01254 6.07 9.13756 6.19502C9.26258 6.32005 9.33282 6.48962 9.33282 6.66643C9.33282 6.84324 9.26258 7.01281 9.13756 7.13783C9.01254 7.26286 8.84297 7.3331 8.66616 7.3331H7.33282V8.66643C7.33282 8.84324 7.26259 9.01281 7.13756 9.13783C7.01254 9.26286 6.84297 9.3331 6.66616 9.3331C6.48935 9.3331 6.31978 9.26286 6.19475 9.13783C6.06973 9.01281 5.99949 8.84324 5.99949 8.66643V7.3331H4.66616C4.48935 7.3331 4.31978 7.26286 4.19475 7.13783C4.06973 7.01281 3.99949 6.84324 3.99949 6.66643C3.99949 6.48962 4.06973 6.32005 4.19475 6.19502C4.31978 6.07 4.48935 5.99976 4.66616 5.99976Z" fill="#858D9D"/>
</g>
<defs>
<clipPath id="clip0_3370_5749">
<rect width="16" height="16" fill="white"/>
</clipPath>
</defs>
</svg>
