<svg width="35" height="36" viewBox="0 0 35 36" fill="none" xmlns="http://www.w3.org/2000/svg">
<g clip-path="url(#clip0_8242_38738)">
<path d="M5.56688 4.25803L12.7619 21.9187C13.0933 20.9451 13.3078 20.4096 13.4736 19.845C14.3022 17.08 15.1602 14.315 15.9011 11.5209C16.4081 9.62242 17.851 10.596 18.9429 10.3818C20.0348 10.1676 20.1713 10.8102 20.337 11.6669C20.8148 14.0717 21.3997 16.4667 22.0042 19.1829C25.0167 15.1816 28.0097 11.5014 32.3482 9.1454C32.6017 9.5543 32.7869 9.87556 33.0014 10.1676C33.9764 11.5209 33.6644 12.3582 32.2995 13.3902C29.1294 15.9772 26.5443 19.2058 24.7145 22.8631C23.0961 25.7838 22.9206 25.9006 19.3621 25.2872L18.2312 19.7476L17.89 19.6892C17.1783 21.8311 16.4471 23.9632 15.7549 26.1148C15.014 28.4514 13.4638 29.3081 11.1435 28.5487C10.8132 28.4056 10.5512 28.1405 10.4123 27.8088C6.935 18.8844 3.46752 9.95346 0.00976562 1.01604C0.00976562 0.928422 0.00976562 0.811589 0.00976562 0.616874C0.409487 0.616874 0.828717 0.509766 1.23819 0.509766C6.7173 0.509766 12.2061 0.509766 17.6853 0.509766C20.0284 0.515669 22.3449 1.0057 24.4892 1.949C26.6334 2.89231 28.559 4.26848 30.1448 5.99099C30.4471 6.30254 30.7201 6.63355 30.9833 6.96457C31.0862 7.13863 31.1742 7.321 31.2465 7.50977L28.273 9.53482C26.3535 7.10583 23.6599 5.40534 20.6393 4.71561C18.9521 4.42159 17.2433 4.26854 15.5306 4.25803C12.3621 4.20935 9.14487 4.25803 5.56688 4.25803Z" fill="#487FFF"/>
<path d="M0.00976562 35.3734V6.86719C1.49166 10.8686 4.06547 14.4611 3.78274 19.0564C3.53901 23.1648 3.78274 27.2928 3.78274 31.5668C4.48469 31.5668 5.05016 31.6544 5.62537 31.6544C9.37885 31.6544 13.1518 31.5278 16.9053 31.6544C20.4876 31.832 23.9943 30.5842 26.6569 28.1845C29.3196 25.7847 30.9209 22.4287 31.1101 18.8519C31.2271 16.3498 32.7382 15.3763 34.415 13.984C35.1178 16.2108 35.2419 18.5794 34.7758 20.8672C34.1464 24.7948 32.1788 28.3851 29.2053 31.0317C26.2318 33.6782 22.4347 35.2187 18.4554 35.3929C12.6058 35.5779 6.84402 35.4416 1.04319 35.4416C0.731212 35.4513 0.497231 35.4124 0.00976562 35.3734Z" fill="#487FFF"/>
</g>
<defs>
<clipPath id="clip0_8242_38738">
<rect width="35" height="35" fill="white" transform="translate(0 0.5)"/>
</clipPath>
</defs>
</svg>
