<svg width="90" height="90" viewBox="0 0 90 90" fill="none" xmlns="http://www.w3.org/2000/svg">
<g filter="url(#filter0_d_3370_6597)">
<path d="M20 44C20 30.1929 31.1929 19 45 19C58.8071 19 70 30.1929 70 44C70 57.8071 58.8071 69 45 69C31.1929 69 20 57.8071 20 44Z" fill="#E30A0A"/>
<g clip-path="url(#clip0_3370_6597)">
<path d="M38.021 32H50.7488C50.7394 32.0273 50.7267 32.0535 50.711 32.078C49.9992 32.902 49.7113 33.8557 49.7181 34.9222C49.7355 37.033 49.7231 39.1437 49.7231 41.2545V41.4916C46.2758 41.7088 43.7495 43.2272 42.545 46.3613C41.3212 49.5457 42.239 52.3137 44.7529 54.6321C44.4321 55.0714 43.9723 55.12 43.5739 54.7419C43.2878 54.4725 43.0054 54.2018 42.6871 53.8957C42.4103 54.179 42.1608 54.4449 41.8989 54.6993C41.4925 55.0954 41.1207 55.0954 40.7199 54.7035C40.4592 54.4496 40.2073 54.1874 39.9193 53.8969C39.6779 54.1442 39.4645 54.3488 39.2665 54.5673C38.7564 55.1296 38.3226 55.1422 37.8007 54.5715C37.5829 54.3314 37.3371 54.1202 37.159 53.9485C36.845 54.2222 36.5509 54.4659 36.2723 54.7251C35.9936 54.9844 35.7311 55.0648 35.4364 54.9382C35.1261 54.8049 35.002 54.5655 35.002 54.2378C35.0053 47.9433 35.0065 41.6486 35.0057 35.3537C35.0062 34.6225 35.2539 33.9114 35.711 33.329C36.1681 32.7465 36.8095 32.3245 37.5376 32.1272C37.6977 32.0828 37.8597 32.042 38.021 32ZM43.4106 38.8136C43.4473 38.7962 43.4535 38.7902 43.4603 38.7902C43.886 38.7902 44.3117 38.7902 44.7368 38.783C45.1619 38.7758 45.4728 38.4938 45.4709 38.1048C45.4691 37.7159 45.1656 37.4411 44.7262 37.4357C44.4011 37.4315 44.0759 37.4357 43.7507 37.4357H43.4082C43.4082 36.9795 43.4144 36.56 43.4082 36.1411C43.4007 35.706 43.0749 35.4131 42.6498 35.4455C42.2818 35.4737 42.0206 35.7588 42.0162 36.1495C42.0106 36.5732 42.0162 36.9969 42.0162 37.4099C41.9926 37.4185 41.9683 37.4253 41.9436 37.4303C41.5334 37.4303 41.1232 37.4303 40.713 37.4339C40.2606 37.4375 39.9535 37.7147 39.9553 38.1114C39.9572 38.5082 40.2656 38.7782 40.7211 38.7818C41.0153 38.7818 41.3094 38.7818 41.6035 38.7818H42.0156C42.0156 39.2223 42.0156 39.6269 42.0156 40.0308C42.0156 40.4719 42.2973 40.7708 42.7051 40.7744C43.1239 40.778 43.4075 40.4773 43.41 40.0224C43.4125 39.6215 43.4106 39.2181 43.4106 38.8136ZM40.8582 43.5021C41.6162 43.5021 42.3739 43.5021 43.1314 43.5021C43.5949 43.5021 43.922 43.2188 43.9201 42.8263C43.9183 42.4338 43.5894 42.1559 43.1252 42.1553C41.6246 42.1553 40.1243 42.1553 38.6242 42.1553C38.1631 42.1553 37.833 42.4422 37.8361 42.8323C37.8392 43.2224 38.165 43.5015 38.631 43.5021C39.3732 43.5029 40.1156 43.5029 40.8582 43.5021ZM39.9026 46.1974C40.3512 46.1974 40.7999 46.1974 41.2486 46.1974C41.6973 46.1974 42.0162 45.913 42.0168 45.5246C42.0175 45.1363 41.6954 44.8525 41.2486 44.8513C40.3666 44.8489 39.4845 44.8489 38.6025 44.8513C38.1569 44.8513 37.8348 45.1393 37.8348 45.5246C37.8348 45.91 38.1551 46.195 38.6025 46.1974C39.0363 46.1992 39.4694 46.1974 39.9026 46.1974ZM39.7164 47.5424C39.3372 47.5424 38.9574 47.5394 38.5783 47.5424C38.1489 47.5466 37.8336 47.8323 37.8336 48.214C37.8336 48.5957 38.1439 48.885 38.5783 48.8874C39.323 48.8926 40.066 48.8926 40.8074 48.8874C41.2374 48.8844 41.552 48.5933 41.552 48.2146C41.552 47.8359 41.2368 47.546 40.8074 47.5418C40.4437 47.5394 40.0801 47.5424 39.7164 47.5424Z" fill="white"/>
<path d="M53.9073 32C54.1456 32.0804 54.3976 32.135 54.6185 32.2467C55.4947 32.6872 55.9837 33.3924 55.9906 34.3472C56.0086 36.488 55.9974 38.6288 55.9961 40.769C55.9961 41.1639 55.7479 41.4706 55.3756 41.4742C53.9526 41.488 52.5297 41.4796 51.0937 41.4796C51.0823 41.4303 51.074 41.3804 51.0688 41.3301C51.0688 39.0099 51.0614 36.6897 51.0726 34.3682C51.0781 33.2027 51.8836 32.2803 53.0584 32.0432C53.0939 32.0323 53.1282 32.018 53.1608 32.0006L53.9073 32Z" fill="white"/>
<path d="M55.9716 48.9468C55.9573 52.3299 53.1374 55.0162 49.6169 55C46.2038 54.9838 43.3958 52.2195 43.4181 48.9036C43.4404 45.5331 46.2727 42.8545 49.8013 42.8731C53.1871 42.8905 55.9858 45.6447 55.9716 48.9468ZM51.2751 47.0011C51.2658 46.6079 50.9363 46.4243 50.5844 46.2683C50.4646 46.2148 50.3927 46.1662 50.3598 46.0282C50.3213 45.8818 50.232 45.7526 50.1068 45.6621C49.9817 45.5717 49.8283 45.5255 49.6722 45.5313C49.3619 45.5481 49.0771 45.7653 49.0336 46.0576C49.0119 46.207 48.9362 46.2695 48.8146 46.3367C47.9538 46.8126 47.7248 47.9079 48.3299 48.6359C48.5738 48.93 48.9045 49.1052 49.2558 49.2517C49.504 49.3549 49.7597 49.4473 49.9856 49.5854C50.0886 49.6484 50.199 49.8218 50.1792 49.922C50.1537 50.0523 50.0228 50.1927 49.8981 50.2659C49.7725 50.3241 49.6298 50.3381 49.4947 50.3055C49.2789 50.2533 49.0688 50.1811 48.8673 50.0901C48.521 49.9424 48.1419 50.0433 47.9594 50.3464C47.913 50.4199 47.8821 50.5015 47.8684 50.5866C47.8547 50.6717 47.8586 50.7586 47.8798 50.8423C47.9009 50.9259 47.939 51.0047 47.9917 51.0741C48.0445 51.1435 48.1109 51.2021 48.1872 51.2466C48.3794 51.3573 48.583 51.4484 48.7947 51.5185C48.9294 51.5647 49.0088 51.6055 49.038 51.7627C49.0944 52.0628 49.4004 52.2711 49.7206 52.2639C50.0408 52.2567 50.3368 52.0328 50.3722 51.7303C50.3914 51.5695 50.4628 51.5059 50.5962 51.4381C51.851 50.8055 51.9397 49.2133 50.7607 48.4606C50.5497 48.3256 50.3101 48.2332 50.078 48.127C49.9043 48.0465 49.7175 47.9895 49.553 47.8941C49.4755 47.8491 49.3731 47.7098 49.3948 47.6666C49.4401 47.576 49.563 47.4614 49.6505 47.4644C49.8375 47.472 50.0208 47.5183 50.1879 47.6C50.4361 47.7201 50.6663 47.7639 50.9146 47.6354C51.1628 47.507 51.2708 47.3131 51.2751 47.0011Z" fill="white"/>
</g>
</g>
<defs>
<filter id="filter0_d_3370_6597" x="0" y="0" width="90" height="90" filterUnits="userSpaceOnUse" color-interpolation-filters="sRGB">
<feFlood flood-opacity="0" result="BackgroundImageFix"/>
<feColorMatrix in="SourceAlpha" type="matrix" values="0 0 0 0 0 0 0 0 0 0 0 0 0 0 0 0 0 0 127 0" result="hardAlpha"/>
<feOffset dy="1"/>
<feGaussianBlur stdDeviation="10"/>
<feComposite in2="hardAlpha" operator="out"/>
<feColorMatrix type="matrix" values="0 0 0 0 0 0 0 0 0 0 0 0 0 0 0 0 0 0 0.05 0"/>
<feBlend mode="normal" in2="BackgroundImageFix" result="effect1_dropShadow_3370_6597"/>
<feBlend mode="normal" in="SourceGraphic" in2="effect1_dropShadow_3370_6597" result="shape"/>
</filter>
<clipPath id="clip0_3370_6597">
<rect width="21" height="23" fill="white" transform="translate(35 32)"/>
</clipPath>
</defs>
</svg>
